<?xml version="1.0" encoding="utf-8"?>
<!-- Generator: Adobe Illustrator 25.3.1, SVG Export Plug-In . SVG Version: 6.00 Build 0)  -->
<svg version="1.1" id="Layer_1" xmlns="http://www.w3.org/2000/svg" xmlns:xlink="http://www.w3.org/1999/xlink" x="0px" y="0px"
	 viewBox="0 0 227.6 70.5" style="enable-background:new 0 0 227.6 70.5;" xml:space="preserve">
<style type="text/css">
	.st0{fill:#FFFFFF;}
	.st1{fill:#002C50;}
	.st2{fill:#BDBCBC;}
	.st3{fill:#DC0046;}
</style>
<g id="Layer_2_1_">
	<circle class="st0" cx="35.4" cy="35.1" r="31"/>
	<g id="Layer_1-2">
		<path class="st1" d="M87.4,42.7h-8.9V25.6h8.9v2.3H81V33h6.4v2.2H81v5.1h6.4L87.4,42.7z"/>
		<path class="st1" d="M97.7,42.7h-2.5V25.6h4c0.9,0,1.7,0,2.6,0.2c0.5,0.1,1.1,0.3,1.5,0.5c0.7,0.4,1.3,1,1.7,1.8
			c0.4,0.8,0.6,1.6,0.6,2.5c0.1,1.4-0.5,2.8-1.6,3.8c-1.2,1-2.8,1.5-4.3,1.4h-2V42.7z M97.7,33.5h1.8c1,0.1,1.9-0.2,2.8-0.7
			c0.6-0.5,0.9-1.3,0.9-2.1c0.1-0.8-0.3-1.6-0.9-2.2c-0.8-0.5-1.7-0.8-2.7-0.7h-1.9V33.5z"/>
		<path class="st1" d="M114.8,42.7h-2.5V25.6h2.5V42.7z"/>
		<path class="st2" d="M121.7,37.8h2.2c0,0.8,0.3,1.5,0.8,2.1c0.5,0.5,1.2,0.8,1.9,0.8c0.8,0,1.5-0.3,2-0.8c0.5-0.6,0.8-1.3,0.8-2.1
			c0-0.6-0.2-1.3-0.6-1.8c-0.7-0.6-1.5-1-2.3-1.2l-0.3-0.1c-1.2-0.3-2.3-0.9-3.1-1.9c-0.3-0.4-0.5-0.8-0.7-1.2
			c-0.1-0.4-0.2-0.9-0.2-1.4c-0.1-1.3,0.4-2.6,1.3-3.5c0.9-0.9,2.1-1.4,3.4-1.4c1.2,0,2.3,0.4,3.1,1.2c0.8,0.9,1.3,2.1,1.3,3.3H129
			c0-0.6-0.2-1.2-0.7-1.6c-0.9-0.9-2.4-0.8-3.2,0.1c-0.4,0.5-0.7,1.1-0.6,1.8c0,0.2,0,0.5,0.1,0.7c0.1,0.2,0.2,0.4,0.4,0.6
			c0.6,0.5,1.4,0.9,2.2,1c0.5,0.1,0.9,0.2,1.2,0.3c1,0.3,1.9,1,2.6,1.8c0.6,0.8,0.9,1.9,0.9,2.9c0.1,1.5-0.4,2.9-1.4,4
			c-1,1-2.3,1.5-3.7,1.5c-1.3,0-2.6-0.5-3.5-1.5C122.1,40.5,121.6,39.2,121.7,37.8z"/>
		<path class="st2" d="M147.6,42.7h-8.9V25.6h8.9v2.3h-6.4V33h6.4v2.2h-6.4v5.1h6.4V42.7z"/>
		<path class="st2" d="M157.9,42.7h-2.5V25.6h2.5l8.4,12.9l-0.1-12.9h2.4v17.1h-2.4l-8.6-13.3L157.9,42.7z"/>
		<path class="st2" d="M175.6,37.8h2.2c0,0.8,0.3,1.5,0.8,2.1c0.5,0.5,1.2,0.8,1.9,0.8c0.7,0,1.5-0.3,2-0.8c0.5-0.6,0.8-1.3,0.8-2.1
			c0-0.6-0.2-1.3-0.6-1.8c-0.7-0.6-1.5-1-2.4-1.2l-0.3-0.1c-1.2-0.3-2.3-0.9-3.1-1.9c-0.3-0.4-0.5-0.8-0.6-1.2
			c-0.1-0.4-0.2-0.9-0.2-1.4c-0.1-1.3,0.4-2.6,1.3-3.5c0.9-0.9,2.1-1.4,3.4-1.4c1.2-0.1,2.3,0.4,3.2,1.2c0.8,0.9,1.3,2.1,1.3,3.3
			H183c0-0.6-0.3-1.2-0.7-1.6c-0.9-0.9-2.4-0.8-3.2,0.1c-0.4,0.5-0.7,1.1-0.6,1.8c0,0.2,0,0.5,0.1,0.7c0.1,0.2,0.2,0.4,0.4,0.6
			c0.6,0.5,1.4,0.9,2.2,1c0.5,0.1,0.9,0.2,1.2,0.3c1,0.3,1.9,1,2.6,1.8c0.6,0.8,0.9,1.9,0.9,2.9c0.1,1.5-0.4,2.9-1.4,4
			c-1,1-2.4,1.6-3.8,1.5c-1.3,0-2.6-0.5-3.5-1.4C176,40.6,175.5,39.2,175.6,37.8z"/>
		<path class="st2" d="M191.9,34c0-1.2,0.2-2.3,0.7-3.4c0.9-2.1,2.6-3.8,4.8-4.7c1-0.4,2.1-0.6,3.3-0.6c1.1,0,2.3,0.2,3.3,0.6
			c1,0.4,2,1.1,2.8,1.9c0.9,0.8,1.5,1.8,2,2.9c0.4,1.1,0.7,2.2,0.7,3.4c0,1.1-0.2,2.3-0.6,3.3c-0.4,1-1,2-1.7,2.8
			c-0.8,0.9-1.9,1.7-3,2.2c-1.1,0.5-2.3,0.7-3.5,0.7c-1.2,0-2.5-0.2-3.6-0.7c-1.1-0.5-2.1-1.3-2.9-2.2c-0.7-0.8-1.3-1.7-1.6-2.8
			C192.1,36.3,191.9,35.2,191.9,34z M194.5,34c0,0.9,0.1,1.7,0.4,2.5c0.3,0.8,0.7,1.5,1.3,2.1c0.6,0.6,1.2,1.1,2,1.4
			c0.7,0.3,1.5,0.5,2.3,0.5c1.7,0.1,3.3-0.6,4.4-1.9c1.2-1.3,1.8-3,1.8-4.7c0-0.8-0.1-1.5-0.4-2.3c-0.6-1.5-1.8-2.8-3.4-3.5
			c-1.5-0.6-3.2-0.6-4.8,0c-0.7,0.3-1.4,0.8-1.9,1.3C195.1,30.8,194.5,32.4,194.5,34L194.5,34z"/>
		<path class="st2" d="M218.8,42.7h-2.5V25.6h4.9c1.7-0.1,3.4,0.4,4.7,1.4c1.1,1.1,1.7,2.6,1.6,4.1c0,1.3-0.5,2.6-1.4,3.5
			c-0.9,0.9-2.2,1.5-3.5,1.5l4.8,6.5h-3.1l-5.7-7.9V42.7z M218.8,34.5h1.3c1.3,0.1,2.7-0.2,3.8-0.8c0.8-0.6,1.3-1.5,1.2-2.5
			c0.1-0.9-0.3-1.9-1.1-2.4c-1-0.6-2.2-0.9-3.4-0.8h-1.9L218.8,34.5z"/>
		<path class="st3" d="M35.2,0C15.8,0,0,15.8,0,35.2s15.8,35.2,35.2,35.2s35.2-15.8,35.2-35.2S54.7,0,35.2,0C35.2,0,35.2,0,35.2,0z
			 M35.2,61.7c-14.6,0-26.4-11.8-26.4-26.4S20.6,8.8,35.2,8.8s26.4,11.8,26.4,26.4c0,0,0,0,0,0C61.7,49.8,49.8,61.7,35.2,61.7z"/>
		<path class="st1" d="M35.2,13.8c-11.9,0-21.5,9.6-21.5,21.5s9.6,21.5,21.5,21.5s21.5-9.6,21.5-21.5S47.1,13.8,35.2,13.8L35.2,13.8
			z M41.3,25.7c-1.8-1.2-3.9-1.9-6.1-1.8c-1.4,0-2.9,0.3-4.2,0.9c-1.4,0.6-2.6,1.4-3.6,2.5c-1,1-1.8,2.3-2.3,3.6
			c-0.5,1.4-0.8,3-0.8,4.5c0,1.5,0.3,3,0.9,4.3c0.6,1.4,1.4,2.7,2.4,3.7c1,1,2.1,1.8,3.4,2.3c1.3,0.5,2.7,0.8,4.1,0.8
			c1.6,0,3.2-0.3,4.7-1c1.4-0.7,2.6-1.7,3.6-2.9h5.4c-1.1,2.5-2.9,4.7-5.2,6.1c-2.4,1.5-5.2,2.3-8.1,2.2c-2.1,0-4.1-0.3-6.1-1.1
			c-1.9-0.7-3.5-1.9-4.9-3.3c-1.5-1.5-2.7-3.2-3.6-5.2c-0.8-1.9-1.2-3.9-1.2-6c0-2,0.3-4,1-5.9c0.7-1.8,1.7-3.5,2.9-4.9
			c1.4-1.6,3.2-3,5.2-3.9c2-0.9,4.1-1.3,6.3-1.3c4.1-0.1,8,1.4,10.9,4.4c2.9,3.1,4.6,7.2,4.6,11.5H31.9v-4.3h13.7
			C44.7,29,43.2,27.1,41.3,25.7z"/>
	</g>
</g>
</svg>
